<?xml version="1.0" encoding="UTF-8"?>
<svg width="256px" height="256px" viewBox="0 0 256 256" version="1.1" xmlns="http://www.w3.org/2000/svg" xmlns:xlink="http://www.w3.org/1999/xlink">
    <title>icon-256x256</title>
    <defs>
        <path d="M0,0 L256,0 L256,256 L0,256 L0,0 Z" id="path-1"></path>
    </defs>
    <g id="icon" stroke="none" fill="none" xlink:href="#path-1" fill-rule="evenodd">
        <use fill="#000000" xlink:href="#path-1"></use>
        <g id="Group" stroke-width="1" transform="translate(-41.5603, 128) scale(1, -1) translate(41.5603, -128)translate(-458, 61)">
            <polygon id="Rectangle-Copy-5" fill="#1B6E92" style="mix-blend-mode: screen;" points="339.62069 0 407.67238 0 492.681034 134 424.629344 134"></polygon>
            <polygon id="Rectangle-Copy-4" fill="#0059FF" style="mix-blend-mode: screen;" transform="translate(501.056, 67) scale(-1, 1) translate(-501.056, -67)" points="424.525862 0 492.577553 0 577.586207 134 509.534516 134"></polygon>
            <polygon id="Rectangle-Copy-7" fill="#1B6E92" style="mix-blend-mode: screen;" points="509.431034 0 577.482725 0 662.491379 134 594.439689 134"></polygon>
            <polygon id="Rectangle-Copy-6" fill="#0059FF" style="mix-blend-mode: screen;" transform="translate(670.8664, 67) scale(-1, 1) translate(-670.8664, -67)" points="594.336207 0 662.387898 0 747.396552 134 679.344861 134"></polygon>
            <polygon id="Rectangle-Copy-8" fill="#1B6E92" style="mix-blend-mode: screen;" points="679.818966 0 747.870656 0 832.87931 134 764.82762 134"></polygon>
        </g>
    </g>
</svg>